<?xml version="1.0" encoding="utf-8"?>
<!-- Svg Vector Icons : http://www.onlinewebfonts.com/icon -->
<!DOCTYPE svg PUBLIC "-//W3C//DTD SVG 1.1//EN" "http://www.w3.org/Graphics/SVG/1.1/DTD/svg11.dtd">
<svg version="1.1" xmlns="http://www.w3.org/2000/svg" xmlns:xlink="http://www.w3.org/1999/xlink" x="0px" y="0px" viewBox="0 0 1000 1000" enable-background="new 0 0 1000 1000" xml:space="preserve">
<metadata> Svg Vector Icons : http://www.onlinewebfonts.com/icon </metadata>
<g><g transform="translate(0.000000,511.000000) scale(0.100000,-0.100000)"><path d="M1771.8,4323.7c-180-44-358.2-185.8-446.3-354.3l-51.7-95.8l-5.7-708.6l-5.8-710.6l44.1-65.1c24.9-38.3,84.3-86.2,136-113c155.1-76.6,191.5-59.4,687.6,331.3c337.1,264.3,438.6,354.3,463.5,411.8c28.7,61.3,32.6,124.5,26.8,453.9c-5.7,340.9-11.5,390.7-47.9,471.2c-49.8,105.3-160.9,233.7-256.6,294.9C2174,4327.5,1936.5,4365.8,1771.8,4323.7z M2011.2,3505.8l-1.9-226l-70.9-53.6l-70.9-53.6l-5.7,235.6c-7.7,304.5-1.9,321.8,82.4,321.8h67V3505.8z"/><path d="M4865,4331.3c-15.3-5.7-61.3-28.7-101.5-47.9C4663.9,4233.7,178.3,730.6,140,673.2c-44-67-53.6-197.3-19.2-277.7c59.4-143.6,243.2-222.2,379.2-164.7c38.3,15.3,538.2,394.5,1110.9,840.8c572.7,448.2,1568.6,1223.9,2210.2,1725.7c643.5,501.8,1174.1,911.7,1181.7,907.9c7.7-1.9,1001.7-775.7,2210.2-1718C8419.7,1044.7,9442.5,257.6,9484.6,238.4c287.3-132.2,553.5,245.2,335.2,475c-93.9,97.7-4512.4,3537.5-4600.5,3581.6C5144.6,4331.3,4926.3,4354.3,4865,4331.3z"/><path d="M4849.7,2994.5c-44.1-15.3-103.4-42.1-130.2-59.4C4533.6,2814.4,1448.1,452.9,1377.3,378.2c-159-166.6-151.3-67-151.3-1865.5c0-1758.2-1.9-1714.2,122.6-1961.2c166.6-333.3,465.4-566.9,825.5-645.4c113-24.9,275.8-28.7,1038.1-24.9c877.2,5.7,904,7.6,957.6,46c28.7,21.1,72.8,76.6,97.7,122.6l42.1,84.3v1154.9v1153l42.1,28.7c36.4,26.8,128.3,30.7,611,30.7c513.3,0,572.7-3.8,609.1-32.6c40.2-34.5,40.2-42.1,44.1-1214.3l5.7-1179.8l55.5-70.9c99.6-130.2,76.6-128.3,1156.8-122.6c944.2,5.7,974.9,7.6,1095.5,47.9c308.3,105.3,574.6,333.3,706.7,603.3c141.7,289.2,136,203,136,1978.5c0,1800.4,7.7,1700.8-151.3,1867.4C8513.6,493.1,5351.5,2896.8,5227,2960C5115.9,3015.5,4958.8,3028.9,4849.7,2994.5z M6590.6,1180.7L8180.3-27.8l-5.7-1505.4c-5.7-1402-9.6-1513.1-40.2-1597.4c-51.7-132.1-174.3-260.5-310.3-323.7l-114.9-55.5H6968h-743.1v994c0,940.4-1.9,999.8-38.3,1114.7c-68.9,218.3-218.3,377.3-434.8,457.8c-101.5,38.3-137.9,40.2-817.8,34.5l-710.6-5.7L4095-977.8c-153.2-74.7-283.5-212.6-346.7-367.7c-42.1-103.4-42.1-120.7-47.9-1133.8l-5.8-1030.4h-702.9h-702.9l-114.9,55.5c-136,63.2-258.6,191.5-310.3,323.7c-32.6,84.3-34.5,193.5-40.2,1597.4l-5.8,1505.4l1585.8,1208.5c871.4,662.7,1587.8,1206.6,1591.6,1206.6C4999,2389.2,5715.4,1845.3,6590.6,1180.7z"/></g></g>
</svg>