<?xml version="1.0" standalone="no"?>
<!DOCTYPE svg PUBLIC "-//W3C//DTD SVG 20010904//EN"
 "http://www.w3.org/TR/2001/REC-SVG-20010904/DTD/svg10.dtd">
<svg version="1.0" xmlns="http://www.w3.org/2000/svg"
 width="512.000000pt" height="512.000000pt" viewBox="0 0 512.000000 512.000000"
 preserveAspectRatio="xMidYMid meet">

<g transform="translate(0.000000,512.000000) scale(0.100000,-0.100000)"
fill="#000000" stroke="none">
<path d="M1770 5065 c-172 -58 -441 -190 -595 -293 -162 -109 -268 -195 -405
-332 -587 -585 -862 -1413 -741 -2227 169 -1132 1065 -2027 2196 -2194 164
-24 574 -27 730 -4 575 81 1089 338 1495 745 137 137 224 243 331 404 173 260
354 687 335 789 -9 49 -58 104 -106 118 -59 18 -104 4 -173 -54 -226 -191
-429 -306 -692 -392 -629 -208 -1300 -91 -1840 318 -241 184 -473 479 -599
764 -309 698 -197 1495 294 2089 43 52 82 108 85 125 21 93 -57 189 -152 189
-15 0 -89 -21 -163 -45z"/>
<path d="M4397 4886 c-80 -29 -106 -80 -107 -208 l0 -88 -90 0 c-150 0 -215
-50 -208 -160 7 -105 57 -142 201 -148 l97 -4 0 -86 c0 -139 44 -202 146 -210
42 -3 60 0 89 18 56 35 75 83 75 190 l0 90 88 0 c71 0 96 4 132 23 104 52 112
190 17 261 -24 17 -46 22 -132 24 l-103 4 -4 103 c-2 86 -7 108 -24 132 -42
57 -115 81 -177 59z"/>
<path d="M3140 3962 c-30 -16 -49 -45 -138 -220 l-103 -202 -199 -100 c-125
-63 -205 -109 -215 -124 -40 -61 -38 -134 6 -190 13 -17 96 -64 217 -125 l195
-98 101 -199 c114 -224 131 -244 216 -244 85 0 102 20 216 244 l101 199 195
98 c128 64 204 108 221 128 57 68 38 175 -41 225 -23 14 -116 63 -207 108
l-167 83 -98 196 c-71 141 -106 201 -127 214 -41 27 -129 31 -173 7z"/>
</g>
</svg>
