<?xml version="1.0" standalone="no"?>
<!DOCTYPE svg PUBLIC "-//W3C//DTD SVG 20010904//EN"
 "http://www.w3.org/TR/2001/REC-SVG-20010904/DTD/svg10.dtd">
<svg version="1.0" xmlns="http://www.w3.org/2000/svg"
 width="512.000000pt" height="512.000000pt" viewBox="0 0 512.000000 512.000000"
 preserveAspectRatio="xMidYMid meet">

<g transform="translate(0.000000,512.000000) scale(0.100000,-0.100000)"
fill="#000000" stroke="none">
<path d="M2472 5103 c-57 -20 -126 -91 -146 -150 -24 -69 -23 -498 1 -568 31
-92 134 -165 233 -165 99 0 202 73 233 165 24 70 25 499 1 568 -43 127 -192
196 -322 150z"/>
<path d="M835 4425 c-52 -19 -130 -100 -144 -151 -6 -21 -11 -62 -11 -90 0
-87 32 -133 223 -321 182 -180 218 -203 307 -203 130 0 250 120 250 250 0 89
-23 125 -203 307 -192 195 -234 223 -326 223 -31 -1 -74 -7 -96 -15z"/>
<path d="M4084 4415 c-36 -18 -101 -76 -221 -198 -180 -182 -203 -218 -203
-307 0 -130 120 -250 250 -250 89 0 125 23 307 203 191 188 223 234 223 321 0
84 -17 126 -74 182 -79 79 -185 98 -282 49z"/>
<path d="M2405 3834 c-11 -3 -56 -12 -100 -20 -495 -95 -892 -493 -1002 -1004
-25 -119 -25 -381 0 -500 111 -515 492 -897 1007 -1007 119 -25 381 -25 500 0
515 110 896 492 1007 1007 25 119 25 381 0 500 -109 509 -489 892 -997 1005
-73 16 -370 30 -415 19z"/>
<path d="M162 2793 c-23 -8 -62 -34 -86 -59 -100 -100 -100 -248 0 -348 70
-70 99 -76 374 -76 274 0 307 7 375 75 98 98 98 252 0 350 -68 69 -101 75
-379 74 -188 0 -250 -4 -284 -16z"/>
<path d="M4386 2794 c-57 -21 -102 -58 -133 -112 -24 -40 -28 -58 -28 -122 0
-64 4 -82 28 -122 32 -55 76 -92 136 -113 64 -22 498 -22 564 1 92 31 167 137
167 234 0 97 -75 203 -167 234 -64 22 -507 22 -567 0z"/>
<path d="M1120 1443 c-61 -22 -377 -331 -415 -407 -49 -97 -30 -203 49 -282
56 -57 98 -74 182 -74 87 0 133 32 321 223 142 144 172 180 186 221 33 98 13
189 -59 260 -71 72 -167 93 -264 59z"/>
<path d="M3822 1443 c-87 -31 -162 -138 -162 -233 0 -89 23 -125 203 -307 188
-191 234 -223 321 -223 84 0 126 17 182 74 57 56 74 98 74 182 0 87 -32 133
-223 321 -144 142 -180 172 -221 186 -60 21 -117 21 -174 0z"/>
<path d="M2476 886 c-57 -21 -108 -67 -136 -122 -24 -47 -25 -54 -28 -297 -3
-291 2 -319 74 -391 100 -100 248 -100 348 0 70 70 76 99 76 375 0 255 -5 290
-56 356 -58 76 -187 113 -278 79z"/>
</g>
</svg>
