<?xml version="1.0" encoding="utf-8"?>
<!-- Svg Vector Icons : http://www.onlinewebfonts.com/icon -->
<!DOCTYPE svg PUBLIC "-//W3C//DTD SVG 1.1//EN" "http://www.w3.org/Graphics/SVG/1.1/DTD/svg11.dtd">
<svg version="1.1" xmlns="http://www.w3.org/2000/svg" xmlns:xlink="http://www.w3.org/1999/xlink" x="0px" y="0px" viewBox="0 0 1000 1000" enable-background="new 0 0 1000 1000" xml:space="preserve">
<metadata> Svg Vector Icons : http://www.onlinewebfonts.com/icon </metadata>
<g><path d="M909.9,808.3c-26.4,19-100.2,44.3-410.1,44.3c-332.2,0-381.2-29-397-38.5C20.7,764.8,11,565.5,10,505.6c0.7-45.4,8.7-269,92.8-319.5c15.8-9.5,65-38.7,396.9-38.7c309.7,0,383.6,25.4,410.1,44.5c73.7,53,80,253.2,80.1,313C989.8,579.2,981.6,756.8,909.9,808.3L909.9,808.3z M874.1,241.5c-10.7-7.7-72.1-32.9-374.4-32.9c-292.1,0-353.7,22.9-365.4,29.9c-29.2,17.5-60.8,122.8-63.2,267C73.6,650,104.8,744,134.3,761.7c11.6,7,72.9,29.7,365.4,29.7c302.5,0,363.7-25,374.4-32.7c26-18.7,54.3-106.1,54.7-253.6C928.4,359.8,900.4,260.4,874.1,241.5L874.1,241.5z M424,697.3c-4.8,2.9-10.3,4.4-15.8,4.4c-5.2,0-10.4-1.3-15-3.9c-9.6-5.4-15.6-15.6-15.6-26.7V333.2c0-11,5.9-21.2,15.6-26.7c9.6-5.4,21.4-5.2,30.8,0.5l275.3,168.9c9.2,5.5,14.8,15.5,14.8,26.2c0,10.7-5.6,20.6-14.8,26.2L424,697.3L424,697.3z M438.8,387.4v229.5l185.5-114.8L438.8,387.4L438.8,387.4z"/></g>
</svg>